<svg version="1.1" xmlns="http://www.w3.org/2000/svg" xmlns:xlink="http://www.w3.org/1999/xlink" width="451.58915" height="81.31626" viewBox="0,0,451.58915,81.31626"><g transform="translate(-26.02087,-139.34186)"><g data-paper-data="{&quot;isPaintingLayer&quot;:true}" fill-rule="nonzero" stroke="none" stroke-width="1" stroke-linejoin="miter" stroke-miterlimit="10" stroke-dasharray="" stroke-dashoffset="0" style="mix-blend-mode: normal"><path d="M53.55557,147.56578c0.784,-0.07078 1.31213,0.19328 1.58435,0.79217c0.27223,0.59345 0.30762,1.28218 0.10617,2.06618l-16.848,65.94646c-0.40834,1.52991 -1.34479,2.29485 -2.80935,2.29485h-3.06253c-0.81668,0 -1.42101,-0.31307 -1.81302,-0.93917c-0.38656,-0.63156 -0.47911,-1.39107 -0.27767,-2.27852l14.3408,-56.35053l-8.98341,9.18758c-1.52991,1.52991 -2.95908,2.29485 -4.28754,2.29485h-3.00536c-1.26312,0 -2.0553,-0.56077 -2.37652,-1.68234c-0.32122,-1.12157 0.11162,-2.2268 1.29852,-3.3157l13.88346,-12.15212c3.91459,-3.90915 6.67223,-5.86372 8.2729,-5.86372h3.97721zM60.85255,211.56855l25.92941,-0.40834c1.05623,0 1.79669,0.1715 2.22136,0.51451c0.42467,0.33756 0.48456,1.06712 0.17966,2.18869l-0.50633,2.30303c-0.343,1.66602 -1.51901,2.49902 -3.52804,2.49902h-29.90661c-2.1778,0 -3.53892,-0.84935 -4.08337,-2.54803c-0.54445,-1.70413 -0.11977,-3.32114 1.27402,-4.85104l30.06178,-34.4065c3.06525,-3.50626 5.19132,-7.12139 6.37823,-10.84544c1.19234,-3.72404 1.17601,-6.85462 -0.049,-9.39175c-1.22501,-2.53713 -3.41915,-3.80571 -6.5824,-3.80571c-3.16325,0 -5.8256,1.2359 -7.98707,3.7077c-2.16146,2.46635 -3.2422,5.55338 -3.2422,9.26108c0,0.47367 -0.21234,0.95823 -0.637,1.45369c-0.42467,0.49544 -0.87656,0.81123 -1.35567,0.94735l-3.4137,0.71051c-0.71867,0.13611 -1.26584,-0.03267 -1.64151,-0.50634c-0.37022,-0.47912 -0.55534,-1.14335 -0.55534,-1.99269c0,-4.86738 1.79396,-9.42715 5.38188,-13.6793c3.59337,-4.25215 8.41719,-6.37823 14.47147,-6.37823c3.94727,0 7.17857,1.09707 9.69393,3.29119c2.52081,2.19414 4.0262,4.94088 4.51621,8.24025c0.49545,3.29937 0.0109,7.02612 -1.45368,11.18027c-1.45913,4.14871 -3.90643,8.1123 -7.34191,11.89078l-27.82409,30.62529zM161.46478,163.38476c0,1.7368 -0.59617,2.77397 -1.78851,3.11153l-3.67503,1.17601c-0.54445,0.2069 -1.09706,0.11434 -1.65785,-0.27767c-0.56078,-0.392 -0.84118,-1.03173 -0.84118,-1.91918c0,-9.21752 -1.49723,-14.52591 -4.49171,-15.92515c-1.39924,-0.68057 -2.93186,-0.64518 -4.59787,0.10617c-2.1778,1.12157 -4.27121,3.45998 -6.28023,7.01523c-2.00357,3.55526 -3.07342,7.5978 -3.20953,12.12762c-0.07078,1.80213 0.23411,3.21497 0.91467,4.23854c0.68057,1.01812 2.00901,1.83208 3.98537,2.44186l4.28754,1.48634c4.04526,1.39379 6.70489,3.0108 7.97891,4.85104c1.27945,1.83479 1.88652,4.53799 1.82119,8.10958c-0.07078,7.51885 -2.52352,14.45241 -7.35823,20.8007c-4.82927,6.34828 -10.35816,9.55509 -16.58666,9.62042c-8.19941,0 -12.29911,-6.68585 -12.29911,-20.05753c-0.13611,-2.79302 0.37567,-4.37465 1.53535,-4.74487l3.8792,-1.22501c0.71323,-0.27223 1.29034,-0.22049 1.73135,0.15517c0.441,0.37023 0.6615,0.98001 0.6615,1.82935c-0.06534,10.448 1.33118,16.33621 4.18954,17.66467c1.05623,0.20145 2.41735,-0.03811 4.08338,-0.71867c2.85835,-1.25768 5.3846,-3.84109 7.57873,-7.75024c2.19414,-3.91459 3.4872,-7.73391 3.8792,-11.45794c0.392,-3.72948 0.16061,-6.19039 -0.69417,-7.38273c-0.84934,-1.19235 -3.04348,-2.33297 -6.5824,-3.42186l-4.38554,-1.37201c-1.93823,-0.61524 -3.62331,-1.73135 -5.05521,-3.34836c-1.42646,-1.61701 -2.13968,-3.63148 -2.13968,-6.04339c0,-4.32293 0.9174,-8.80647 2.75219,-13.45062c1.84024,-4.64415 4.57066,-8.66764 8.19125,-12.07045c3.62604,-3.40281 7.61685,-5.10422 11.97244,-5.10422c4.3556,0 7.47801,1.84568 9.36725,5.53705c1.88924,3.69137 2.83386,9.02425 2.83386,15.99865zM186.67348,149.4523l-4.08337,16.12932h5.41455c1.52991,0 2.0553,0.76495 1.57618,2.29485l-0.71051,2.70319c-0.51178,1.53535 -1.4319,2.30303 -2.76036,2.30303h-5.40639l-11.0741,43.48791c-0.40834,1.52991 -1.46458,2.29485 -3.1687,2.29485h-1.93552c-1.12701,0 -1.91918,-0.31307 -2.37652,-0.93917c-0.45734,-0.63156 -0.58529,-1.44279 -0.38384,-2.43369l10.86994,-42.40991h-4.18137c-1.39379,0 -1.83752,-0.83574 -1.33118,-2.50719l0.81668,-2.80119c0.40834,-1.32846 1.17602,-1.99269 2.30303,-1.99269h4.18137l4.18954,-16.23548c0.40834,-1.52991 1.44551,-2.29485 3.11153,-2.29485h2.65419c1.93824,0 2.70319,0.80035 2.29485,2.40102zM202.49859,179.56307c2.21046,-3.60425 4.26032,-6.596 6.14956,-8.97525c1.88924,-2.3847 3.26669,-3.87375 4.13237,-4.4672c0.87112,-0.5989 2.39558,-0.89834 4.57338,-0.89834h1.02084c2.04169,0 2.73858,0.78401 2.09069,2.35202c-0.33756,0.81668 -1.18691,1.83751 -2.54803,3.06253c-1.36112,1.22501 -3.20953,3.31842 -5.54522,6.28023c-2.33024,2.95636 -3.49536,4.87827 -3.49536,5.76572c0,1.83479 0.86839,3.55253 2.60519,5.15321c0.40834,0.33756 0.52812,0.70234 0.35934,1.09434c-0.16878,0.392 -0.5254,0.65606 -1.06985,0.79217l-3.98537,0.71867c-1.12157,0.20145 -1.9818,0.08167 -2.58069,-0.35934c-0.59345,-0.441 -1.62246,-2.02263 -3.08703,-4.74488l-8.01157,31.03363c-0.441,1.52991 -1.49452,2.29485 -3.16053,2.29485h-3.01353c-1.97636,0 -2.74402,-0.80034 -2.30303,-2.40102l12.76462,-48.59213c0.34301,-1.39379 1.31212,-2.09068 2.90736,-2.09068h3.2177c0.92012,0 1.53262,0.15245 1.83751,0.45734c0.30489,0.30489 0.35661,0.88473 0.15517,1.73952zM221.59039,204.21848c-0.95278,5.10694 0,7.93264 2.85835,8.47709c2.55347,-0.95278 5.71944,-3.55798 9.49793,-7.81558c0.64244,-0.57711 1.33935,-0.64518 2.09068,-0.20417l1.99269,1.22501c0.91467,0.71868 1.21957,1.48635 0.91467,2.30303c-1.32846,2.51536 -3.77847,5.18588 -7.35007,8.01157c-3.5716,2.82569 -6.44628,4.03437 -8.62408,3.62604c-4.93271,-1.26313 -7.82647,-3.84925 -8.68125,-7.75841c-0.98545,-5.24306 -0.11706,-12.44068 2.6052,-21.59288c2.72225,-9.15219 6.51707,-16.06126 11.38444,-20.72719c1.69868,-1.56257 3.8166,-2.72497 6.35373,-3.4872c2.53713,-0.76767 5.21582,-0.55534 8.03607,0.637c2.82569,1.1869 4.2222,4.58971 4.18954,10.20843c-0.03267,5.61327 -2.49086,10.91349 -7.37457,15.90065c-4.88372,4.98172 -10.84815,8.71392 -17.89333,11.19661zM222.8644,197.43191c3.26669,-1.39379 6.06517,-3.02713 8.39541,-4.90004c2.33568,-1.87291 4.26032,-4.15143 5.77389,-6.83557c1.51357,-2.68958 2.27035,-5.44721 2.27035,-8.2729c0,-2.82569 -0.81668,-4.23854 -2.45003,-4.23854c-3.20136,0 -6.00255,2.61336 -8.40358,7.84007c-2.39558,5.22127 -4.25759,10.69027 -5.58606,16.40699zM277.32432,167.6723c0.27223,-1.63335 1.07257,-2.45002 2.40102,-2.45002l2.40102,-0.098c2.55347,0.06533 3.48992,1.32301 2.80936,3.77303l-12.56045,41.80556c2.1778,-1.60069 4.33926,-3.89826 6.48439,-6.89274c0.78401,-1.12157 1.65241,-1.3584 2.6052,-0.71051l2.54802,1.68234c1.0889,0.7459 1.2604,1.6143 0.51451,2.6052c-2.85836,3.33203 -5.48805,5.92633 -7.88908,7.78291c-2.40102,1.85113 -5.25121,3.15236 -8.55058,3.90369c-0.95278,0.13611 -1.58162,-0.23955 -1.88652,-1.12701l-1.94368,-5.76572c-1.97091,2.58614 -3.65598,4.36648 -5.05521,5.34105c-1.39379,0.96911 -2.46363,1.45368 -3.20953,1.45368h-0.20417c-0.57711,0 -1.43734,-0.40017 -2.58069,-1.20051c-1.13791,-0.80035 -2.27036,-1.84569 -3.39737,-3.13603c-1.12157,-1.29579 -1.93007,-2.70863 -2.42552,-4.23854c-0.49001,-1.53535 -0.45462,-4.31749 0.10617,-8.34642c0.56078,-4.03436 2.15057,-9.67486 4.76937,-16.92149c2.62425,-7.25207 5.31382,-12.30729 8.06874,-15.16564c2.75491,-2.85835 6.20946,-4.25215 10.3636,-4.18137c2.31392,0 4.52437,0.62884 6.6314,1.88652zM275.74814,173.49518c-3.71314,-2.07979 -6.73483,-2.12336 -9.06508,-0.13066c-2.33024,1.99269 -4.61149,6.05156 -6.84374,12.17662c-2.2268,6.12506 -3.67231,10.93254 -4.33653,14.42246c-0.65878,3.48448 -0.93918,5.85556 -0.84118,7.11325c0.10344,1.25768 0.71595,2.1778 1.83751,2.76036c1.12701,0.57711 2.99175,-0.56351 5.59422,-3.42187c2.60247,-2.85836 4.88099,-6.77023 6.83556,-11.73561c1.96001,-4.97082 4.23309,-12.03233 6.81923,-21.18453zM311.98806,141.7429l-11.43344,44.81908l15.81898,-19.86152c0.54445,-0.7459 1.48089,-1.11884 2.80936,-1.11884h3.8792c1.0889,0 1.66602,0.38385 1.73135,1.15152c0.07078,0.76223 -0.30217,1.58707 -1.11884,2.47452l-17.96683,21.12736l8.11774,25.52107c0.6479,1.87291 -0.08439,2.80936 -2.19686,2.80936h-2.80935c-1.05079,0 -1.76402,-0.13611 -2.13969,-0.40834c-0.37566,-0.27223 -0.69962,-0.90107 -0.97184,-1.88652l-6.78656,-23.33239l-5.96989,23.33239c-0.40834,1.52991 -1.46458,2.29485 -3.1687,2.29485h-1.73135c-2.59157,0 -3.61514,-1.12428 -3.07069,-3.37286l19.14285,-73.6477c0.40834,-1.53535 1.44824,-2.30302 3.11969,-2.30302h2.39285c1.97635,0 2.76036,0.80034 2.35202,2.40101zM359.34905,145.26276c0.40834,-1.52991 1.44551,-2.29485 3.11153,-2.29485h3.06253c0.81668,0 1.42101,0.31578 1.81301,0.94735c0.39201,0.62611 0.46823,1.39924 0.22867,2.31936l-17.86066,70.13599c-0.40834,1.52991 -1.44551,2.29485 -3.11153,2.29485h-3.06253c-0.82211,0 -1.42645,-0.31307 -1.81301,-0.93917c-0.39201,-0.63156 -0.48728,-1.39107 -0.28584,-2.27852zM376.75849,194.93289l10.86993,-17.96684c2.31392,-3.77847 4.68771,-6.6205 7.1214,-8.52608c2.43369,-1.90557 4.51621,-2.85836 6.24756,-2.85836h2.19685c1.12157,0 1.99814,0.18784 2.6297,0.56351c0.63156,0.37023 1.14062,1.21956 1.52718,2.54802c0.39201,1.32846 0.19872,3.28575 -0.57985,5.87189l-11.69478,42.62223c-0.20145,0.98545 -0.76223,1.47818 -1.68234,1.47818h-5.46355c-1.01812,0 -1.29034,-0.833 -0.81667,-2.49902l10.97611,-35.88468c0.54445,-1.87291 0.81668,-3.10609 0.81668,-3.69954c0,-0.5989 -0.23955,-0.89834 -0.71867,-0.89834c-0.47367,0 -1.04263,0.31578 -1.70685,0.94735c-0.66423,0.63156 -1.55712,1.78035 -2.67869,3.44636c-1.32846,1.90557 -2.92913,4.37193 -4.80204,7.39907c-1.86746,3.02714 -4.23037,6.77023 -7.08874,11.22927c-5.37916,8.19942 -9.19031,14.35986 -11.43344,18.48135c-0.54445,0.98545 -1.37745,1.47818 -2.49902,1.47818h-2.91553c-0.40834,0 -0.75677,-0.28039 -1.04534,-0.84118c-0.28857,-0.56078 -0.33211,-1.18146 -0.13067,-1.86202l12.66661,-47.67745c0.33756,-1.80213 1.03445,-2.70319 2.09069,-2.70319h4.28754c1.66602,0 2.2268,1.00451 1.68235,3.01354zM441.93318,171.39634c1.12701,1.19235 1.26312,2.28124 0.40834,3.26669l-1.73135,1.99269c-1.19234,1.32846 -2.24858,1.49996 -3.1687,0.5145l-1.11884,-1.28217c-2.5208,-2.54802 -4.51076,-3.65326 -5.96988,-3.3157c-2.5208,0.47912 -5.17772,3.16053 -7.97074,8.04425c-2.78758,4.87827 -4.78571,9.91442 -5.99439,15.10848c-1.20868,5.1886 -1.50541,9.51698 -0.89018,12.98513c0.13611,0.84934 0.78129,1.62518 1.93552,2.32752c1.15968,0.6969 2.0444,0.97729 2.65419,0.84118c2.11247,-1.12701 4.44544,-3.22042 6.9989,-6.28023c0.77856,-1.05623 1.90013,-1.12429 3.3647,-0.20417l1.58435,1.02085c2.21046,1.32846 0.32123,4.40731 -5.66773,9.23659c-2.51536,2.14512 -4.47265,3.4137 -5.87189,3.80571c-1.39379,0.392 -3.49537,-0.12523 -6.30473,-1.55168c-2.80392,-1.4319 -4.52982,-2.84747 -5.17771,-4.24671c-1.93823,-4.25215 -1.97362,-10.29826 -0.10617,-18.13835c1.87291,-7.84552 4.17048,-13.84262 6.89273,-17.99133c2.72224,-4.15415 5.39277,-7.31196 8.01157,-9.47343c2.62425,-2.16146 5.44994,-3.09792 8.47708,-2.80936c3.02714,0.28857 6.24212,2.33842 9.64492,6.14956zM447.60091,208.81636h1.12701c1.32302,0 2.52897,0.59617 3.61787,1.78851c1.0889,1.1869 1.63335,2.59702 1.63335,4.23037c0,1.63335 -0.56078,3.0108 -1.68235,4.13237c-1.12157,1.12701 -2.55075,1.69051 -4.28754,1.69051h-1.02084c-1.39379,0 -2.60247,-0.57984 -3.62604,-1.73951c-1.01812,-1.15423 -1.52718,-2.54802 -1.52718,-4.18137c0,-1.63335 0.54445,-3.02714 1.63335,-4.18137c1.0889,-1.15967 2.46636,-1.73951 4.13238,-1.73951z" fill="#ffffff" stroke-linecap="square"/><path d="M461.29001,145.58001c0.06867,-0.00866 0.13772,0.01276 0.18945,0.05874c0.05173,0.04598 0.08109,0.11205 0.08055,0.18126l-0.08,11.7c-0.03298,1.6155 -1.3635,2.9016 -2.97919,2.87973c-1.61568,-0.02187 -2.9109,-1.34353 -2.90013,-2.95933c0.01077,-1.61579 1.32349,-2.92007 2.93932,-2.9204c0.22893,0.0014 0.457,0.02822 0.68,0.08v-4.66l-8.53,1.08l-0.06,8.19c-0.04244,1.60251 -1.33724,2.8885 -2.94,2.92v0c-0.78677,-0.00519 -1.53863,-0.32551 -2.08741,-0.88932c-0.54877,-0.56381 -0.84867,-1.32405 -0.83259,-2.11068c0.04244,-1.60251 1.33724,-2.8885 2.94,-2.92c0.22897,0.00063 0.45713,0.02747 0.68,0.08l0.06,-8.83c-0.00095,-0.12167 0.08929,-0.2248 0.21,-0.24l12.61,-1.71" fill="#b9b9b9" stroke-linecap="butt"/><path d="M477.53001,140.59001c0.0512,0.04579 0.08032,0.11132 0.08,0.18l-0.05,7.9c-0.01102,1.13504 -0.93814,2.04729 -2.07321,2.03996c-1.13507,-0.00733 -2.05032,-0.93147 -2.04668,-2.06655c0.00364,-1.13509 0.9248,-2.05335 2.05989,-2.0534c0.12642,-0.01117 0.25358,-0.01117 0.38,0v-3l-5.6,0.71v5.46c-0.01092,1.13153 -0.92843,2.04459 -2.06,2.05v0c-1.14047,0 -2.065,-0.92453 -2.065,-2.065c0,-1.14047 0.92453,-2.065 2.065,-2.065c0.12642,-0.01111 0.25358,-0.01111 0.38,0v-5.87c0.00399,-0.11784 0.09301,-0.21533 0.21,-0.23l8.52,-1.16c0.06903,-0.00848 0.13835,0.01342 0.19,0.06M468.19001,151.65001z" fill="#e0e0e0" stroke-linecap="butt"/></g></g></svg>